<svg width="24" height="24" viewBox="0 0 24 24" fill="none" xmlns="http://www.w3.org/2000/svg">
<g clip-path="url(#clip0_795_5757)">
<path d="M6.24848 17.2232L4.90448 17.5224C4.19204 17.677 3.55433 18.0716 3.09812 18.6403C2.64192 19.2089 2.39492 19.917 2.39848 20.646V21.2932C2.39909 21.7316 2.54342 22.1578 2.80936 22.5064C3.07529 22.855 3.44817 23.1068 3.87088 23.2232C5.16888 23.5772 7.63248 24 11.9985 24C16.3645 24 18.8281 23.5772 20.1261 23.2232C20.5488 23.1068 20.9217 22.855 21.1876 22.5064C21.4535 22.1578 21.5979 21.7316 21.5985 21.2932V20.646C21.602 19.917 21.355 19.2089 20.8988 18.6403C20.4426 18.0716 19.8049 17.677 19.0925 17.5224L17.7485 17.2232L15.9149 16.1236L15.1777 14.4036L15.4177 14.1272L15.5981 14.1756C15.7868 14.2255 15.9812 14.2509 16.1765 14.2512C16.7663 14.2499 17.3315 14.0147 17.7481 13.5971C18.1647 13.1796 18.3986 12.6138 18.3985 12.024V11.544C18.7411 11.4555 19.0447 11.256 19.2618 10.9767C19.4789 10.6973 19.5973 10.3538 19.5985 10V8.4C19.5972 8.04631 19.4787 7.70304 19.2616 7.42383C19.0444 7.14462 18.7409 6.94522 18.3985 6.8568V6.4C18.3985 4.70261 17.7242 3.07475 16.524 1.87452C15.3237 0.674284 13.6959 0 11.9985 0C10.3011 0 8.67323 0.674284 7.47299 1.87452C6.27276 3.07475 5.59848 4.70261 5.59848 6.4V6.8568C5.25602 6.94522 4.95251 7.14462 4.7354 7.42383C4.51828 7.70304 4.3998 8.04631 4.39848 8.4V10C4.39848 10.4243 4.56705 10.8313 4.86711 11.1314C5.16716 11.4314 5.57413 11.6 5.99848 11.6H6.79848C6.93505 11.5987 7.07037 11.5738 7.19848 11.5264V11.6644C7.19824 12.2355 7.4055 12.7871 7.78168 13.2168L8.82168 14.4028L8.08408 16.1228L6.24848 17.2232ZM8.28488 16.9348C9.00838 17.8881 9.99903 18.6048 11.1309 18.9936C10.7452 19.3713 10.4247 19.8103 10.1825 20.2928C8.92329 19.705 7.82529 18.8209 6.98248 17.716L8.28488 16.9348ZM20.7985 20.646V21.2932C20.7986 21.5566 20.7123 21.8128 20.5527 22.0223C20.3932 22.2319 20.1692 22.3833 19.9153 22.4532C18.6645 22.7928 16.2757 23.2 11.9985 23.2C7.72128 23.2 5.33248 22.7928 4.08168 22.4512C3.82806 22.3814 3.60434 22.2303 3.44481 22.0211C3.28528 21.812 3.19875 21.5563 3.19848 21.2932V20.646C3.19573 20.0992 3.38103 19.568 3.7233 19.1416C4.06557 18.7151 4.54403 18.4193 5.07848 18.3036L6.22808 18.048C6.67888 18.6532 8.04568 20.3144 9.98088 21.0736C10.1465 21.1372 10.33 21.1357 10.4945 21.0694C10.659 21.003 10.7922 20.8767 10.8673 20.716C11.1297 20.1608 11.5168 19.6737 11.9985 19.2928C12.4803 19.6736 12.8677 20.1605 13.1305 20.7156C13.1872 20.8364 13.277 20.9385 13.3896 21.0101C13.5021 21.0817 13.6327 21.1198 13.7661 21.12C13.8521 21.1201 13.9373 21.104 14.0173 21.0724C15.9521 20.3124 17.3189 18.652 17.7697 18.0468L18.9193 18.3024C19.4538 18.4183 19.9322 18.7144 20.2743 19.1411C20.6165 19.5677 20.8015 20.0991 20.7985 20.646ZM13.8145 20.2928C13.5725 19.8102 13.252 19.3712 12.8661 18.9936C13.9979 18.6048 14.9886 17.8881 15.7121 16.9348L17.0145 17.716C16.1716 18.8208 15.0736 19.7049 13.8145 20.2928ZM17.0425 13.154C16.7523 13.3749 16.388 13.4752 16.0257 13.434L16.2153 13.2172C16.5914 12.7874 16.7987 12.2356 16.7985 11.6644V11.5264C16.9266 11.5738 17.0619 11.5987 17.1985 11.6H17.5985V12.024C17.5993 12.2425 17.5495 12.4582 17.453 12.6542C17.3566 12.8503 17.216 13.0213 17.0425 13.154ZM15.9985 6.794C12.3237 6.6836 11.5749 5.0632 11.5701 5.0516C11.5404 4.97731 11.4891 4.91363 11.4229 4.86878C11.3566 4.82393 11.2785 4.79997 11.1985 4.8C10.0347 4.80183 8.91507 5.24596 8.06648 6.0424C8.42448 4.0572 10.1377 2.4 11.9985 2.4C13.059 2.40116 14.0757 2.82297 14.8256 3.57286C15.5755 4.32275 15.9973 5.33949 15.9985 6.4V6.794ZM18.7985 8.4V10C18.7985 10.2122 18.7142 10.4157 18.5642 10.5657C18.4141 10.7157 18.2107 10.8 17.9985 10.8H17.1985C17.0924 10.8 16.9906 10.7579 16.9156 10.6828C16.8406 10.6078 16.7985 10.5061 16.7985 10.4V8C16.7985 7.89391 16.8406 7.79217 16.9156 7.71716C16.9906 7.64214 17.0924 7.6 17.1985 7.6H17.9985C18.2107 7.6 18.4141 7.68429 18.5642 7.83431C18.7142 7.98434 18.7985 8.18783 18.7985 8.4ZM11.9985 0.8C13.4832 0.801588 14.9067 1.3921 15.9565 2.44196C17.0064 3.49182 17.5969 4.91528 17.5985 6.4V6.8H17.1985C17.0619 6.80133 16.9266 6.82622 16.7985 6.8736V6.4C16.7971 5.12738 16.2909 3.90728 15.3911 3.00741C14.4912 2.10753 13.2711 1.60138 11.9985 1.6C9.44128 1.6 7.19848 4.03 7.19848 6.8V6.8736C7.07037 6.82622 6.93505 6.80133 6.79848 6.8H6.39848V6.4C6.40006 4.91528 6.99057 3.49182 8.04043 2.44196C9.09029 1.3921 10.5138 0.801588 11.9985 0.8ZM6.79848 10.8H5.99848C5.7863 10.8 5.58282 10.7157 5.43279 10.5657C5.28276 10.4157 5.19848 10.2122 5.19848 10V8.4C5.19848 8.18783 5.28276 7.98434 5.43279 7.83431C5.58282 7.68429 5.7863 7.6 5.99848 7.6H6.79848C6.90456 7.6 7.0063 7.64214 7.08132 7.71716C7.15633 7.79217 7.19848 7.89391 7.19848 8V10.4C7.19848 10.5061 7.15633 10.6078 7.08132 10.6828C7.0063 10.7579 6.90456 10.8 6.79848 10.8ZM7.99848 11.6644V7.32C8.33567 6.83202 8.77722 6.4252 9.29113 6.12901C9.80503 5.83284 10.3784 5.65473 10.9697 5.6076C11.3473 6.1792 12.5905 7.4936 15.9985 7.5912V11.6644C15.9985 12.0418 15.8615 12.4064 15.6129 12.6904L15.1449 13.2252L14.0249 12.926L14.0369 12.8764C14.0613 12.7742 14.0654 12.6681 14.0489 12.5643C14.0324 12.4605 13.9955 12.361 13.9405 12.2714C13.8855 12.1819 13.8134 12.104 13.7283 12.0424C13.6432 11.9807 13.5467 11.9364 13.4445 11.912L12.2777 11.632C11.968 11.5578 11.6416 11.6097 11.3702 11.7763C11.0988 11.9428 10.9046 12.2103 10.8305 12.52C10.7563 12.8297 10.8082 13.1561 10.9748 13.4275C11.1413 13.6989 11.4088 13.893 11.7185 13.9672L12.8853 14.2472C12.9469 14.262 13.01 14.2695 13.0733 14.2696C13.244 14.2697 13.4101 14.2147 13.5471 14.1128C13.684 14.0109 13.7844 13.8675 13.8333 13.704L14.5569 13.8976L13.9585 14.58C13.7882 14.7747 13.5783 14.9308 13.3427 15.0377C13.1072 15.1446 12.8515 15.2 12.5929 15.2H11.4041C11.1454 15.1998 10.8898 15.1444 10.6543 15.0375C10.4188 14.9306 10.2088 14.7746 10.0385 14.58L8.38488 12.69C8.13596 12.4063 7.99863 12.0418 7.99848 11.6644ZM13.2585 12.6904L13.0729 13.468L11.9057 13.188C11.854 13.1764 11.8051 13.1546 11.7619 13.124C11.7187 13.0933 11.682 13.0543 11.6539 13.0094C11.6259 12.9644 11.6071 12.9143 11.5986 12.862C11.59 12.8097 11.592 12.7563 11.6043 12.7047C11.6166 12.6532 11.6391 12.6046 11.6703 12.5618C11.7016 12.519 11.741 12.4829 11.7864 12.4554C11.8317 12.428 11.882 12.4099 11.9345 12.4021C11.9869 12.3943 12.0403 12.397 12.0917 12.41L13.2585 12.6904ZM9.43528 15.1068C9.68077 15.3875 9.98345 15.6124 10.323 15.7664C10.6626 15.9205 11.0312 16.0001 11.4041 16H12.5929C12.9658 16.0001 13.3343 15.9205 13.6739 15.7664C14.0135 15.6124 14.3162 15.3875 14.5617 15.1068L14.5937 15.0704L15.1445 16.3564C14.3856 17.4031 13.264 18.1295 11.9985 18.394C10.733 18.1295 9.61138 17.4031 8.85248 16.3564L9.40368 15.0704L9.43528 15.1068Z" fill="white"/>
</g>
<defs>
<clipPath id="clip0_795_5757">
<rect width="24" height="24" fill="white"/>
</clipPath>
</defs>
</svg>
