<svg width="26" height="23" viewBox="0 0 26 23" fill="none" xmlns="http://www.w3.org/2000/svg">
<path d="M25.602 19.885L20.7187 15.4067C20.4983 15.2046 20.1995 15.0923 19.8861 15.0923H19.0877C20.4395 13.5067 21.2428 11.5124 21.2428 9.34284C21.2428 4.18182 16.6828 0 11.055 0C5.42721 0 0.867188 4.18182 0.867188 9.34284C0.867188 14.5039 5.42721 18.6857 11.055 18.6857C13.4207 18.6857 15.5954 17.949 17.3244 16.7093V17.4415C17.3244 17.7289 17.4469 18.0029 17.6673 18.2051L22.5506 22.6833C23.011 23.1056 23.7555 23.1056 24.211 22.6833L25.5971 21.4122C26.0575 20.9899 26.0575 20.3072 25.602 19.885ZM11.055 15.0923C7.59212 15.0923 4.78557 12.523 4.78557 9.34284C4.78557 6.16717 7.58722 3.5934 11.055 3.5934C14.5179 3.5934 17.3244 6.16268 17.3244 9.34284C17.3244 12.5185 14.5228 15.0923 11.055 15.0923Z" fill="white"/>
</svg>
